<svg xmlns="http://www.w3.org/2000/svg" width="512" height="512" viewBox="0 0 512 512" version="1.1">
	<path d="M 269.011 47.460 C 267.776 51.871, 267.756 51.887, 262.268 52.572 C 259.240 52.951, 254.004 52.992, 250.631 52.664 L 244.500 52.068 247.925 55.003 C 253.167 59.495, 257.551 61.210, 262.827 60.834 L 267.500 60.500 267.500 72.956 L 267.500 85.412 251.500 92.456 C 236.666 98.987, 234.990 99.500, 228.500 99.500 C 222.036 99.500, 220.619 99.071, 210 93.901 C 192.825 85.539, 193.572 86.499, 193.150 72.224 L 192.797 60.268 195.480 59.594 C 196.955 59.224, 199.912 57.763, 202.051 56.348 C 204.912 54.454, 206.873 53.883, 209.470 54.186 C 213.871 54.700, 213.967 53.578, 209.750 50.930 C 207.138 49.289, 205.518 49.008, 201.500 49.498 C 191.723 50.690, 191.524 50.666, 191.180 48.250 C 190.794 45.528, 189 45.231, 189 47.889 C 189 48.928, 188.139 50.841, 187.088 52.139 C 185.375 54.253, 184.381 54.496, 177.588 54.459 C 173.414 54.436, 170 54.542, 170 54.695 C 170 54.847, 171.825 56.179, 174.055 57.655 C 177.146 59.700, 179.254 60.313, 182.920 60.229 L 187.730 60.120 188.250 72.310 C 188.590 80.273, 188.397 84.962, 187.695 85.832 C 184.478 89.816, 163.120 98, 155.940 98 C 153.223 98, 151 98.243, 151 98.540 C 151 98.838, 151.965 100.386, 153.144 101.981 C 154.949 104.423, 155.204 105.800, 154.756 110.691 C 153.982 119.130, 149.063 131.413, 146.298 131.810 L 144.139 132.121 146.209 135.629 C 147.976 138.625, 148.192 140.184, 147.689 146.318 C 147.082 153.711, 143.145 167.916, 140.978 170.527 C 140.305 171.337, 138.157 172, 136.203 172 L 132.651 172 134.709 174.250 C 137.289 177.072, 139.561 181.579, 140.423 185.584 C 141.776 191.874, 133.597 222.075, 130.023 223.988 C 128.983 224.545, 126.892 225, 125.377 225 L 122.623 225 124.801 227.029 C 129.793 231.680, 131.455 238.393, 129.948 247.822 C 128.625 256.106, 121.584 278.081, 118.388 283.902 C 117.058 286.323, 116.090 288.385, 116.235 288.484 C 116.381 288.582, 121.675 288.258, 128 287.763 C 134.325 287.267, 146.250 287.082, 154.500 287.350 C 169.914 287.852, 175.972 289.121, 180.867 292.871 L 183.233 294.685 178.580 311.092 C 176.020 320.117, 173.729 328.071, 173.487 328.769 C 173.184 329.645, 171.185 328.872, 167.024 326.271 C 160.452 322.163, 160.388 321.996, 161.916 312.934 C 163.618 302.842, 163.885 299.953, 163.069 300.458 C 162.622 300.734, 161.459 305.131, 160.486 310.230 C 159.512 315.328, 158.590 319.652, 158.436 319.838 C 158.283 320.024, 151.259 316.567, 142.829 312.155 C 127.171 303.961, 119.740 300.798, 112.302 299.160 L 108.105 298.236 113.552 304.979 C 116.549 308.687, 119.001 311.896, 119.002 312.111 C 119.003 312.325, 115.758 312.347, 111.789 312.160 L 104.574 311.819 111.645 319.263 C 123.715 331.969, 127.330 342.557, 127.172 364.732 C 127.072 378.847, 127.089 378.962, 129.282 378.732 C 130.907 378.562, 131.580 379.102, 131.819 380.770 C 132.044 382.337, 133.680 383.818, 137.108 385.555 C 144.231 389.164, 149.853 394.637, 152.955 400.983 C 154.438 404.017, 156.102 406.414, 156.651 406.308 C 157.201 406.203, 166.617 405.171, 177.575 404.015 C 206.397 400.976, 214.981 399.447, 237.417 393.357 C 260.482 387.096, 292.400 379, 294.019 379 C 297.157 379, 292.944 381.256, 285.702 383.454 C 276.027 386.390, 231.035 397.016, 216 399.916 C 204 402.231, 178.538 405.626, 165.998 406.585 L 157.496 407.235 157.805 415.367 C 157.976 419.840, 158.299 424.060, 158.524 424.744 C 158.843 425.717, 174.863 426.043, 232.216 426.244 L 305.500 426.500 305.797 432.160 C 306.055 437.075, 305.799 438.027, 303.854 439.390 L 301.613 440.959 303.807 443.294 C 306.693 446.366, 306.575 448.403, 303.365 450.927 C 299.831 453.708, 298 453.562, 298 450.500 C 298 449.125, 298.420 448, 298.933 448 C 300.461 448, 301.255 444.013, 300.023 442.528 C 299.343 441.708, 299.140 439.770, 299.522 437.733 C 300.083 434.742, 299.769 433.983, 297.005 431.658 C 294.210 429.305, 292.997 429, 286.457 429 C 279.108 429, 279.038 429.025, 273.964 433.532 C 269.226 437.740, 268.597 438.009, 265.180 437.288 C 254.941 435.126, 250.665 437.383, 249.433 445.600 C 248.493 451.867, 245.875 453.470, 238.030 452.583 C 232.186 451.922, 232.074 451.956, 230.554 454.895 C 229.089 457.728, 225.457 461, 223.777 461 C 223.350 461, 223 460.137, 223 459.082 C 223 453.622, 218.861 451, 210.244 451 C 205.590 451, 203.703 451.506, 201.045 453.467 C 197.129 456.356, 195.368 455.894, 197.559 452.551 C 199.278 449.926, 205.962 445, 207.804 445 C 209.763 445, 209.167 443.339, 206.604 441.660 C 202.274 438.823, 199.763 438.780, 194.500 441.452 C 191.750 442.849, 188.938 443.994, 188.250 443.996 C 186.524 444.002, 186.680 441.510, 188.500 440 C 189.325 439.315, 190 437.492, 190 435.949 C 190 431.182, 188.127 430.292, 178.330 430.404 L 169.500 430.505 163.256 435.167 C 159.822 437.732, 156.479 440.007, 155.829 440.224 C 153.523 440.992, 156.011 442.738, 160.215 443.302 C 165.683 444.035, 167.571 446.413, 168.483 453.712 C 169.418 461.193, 170.814 463.748, 177.007 469.316 C 184.754 476.282, 191.085 478.343, 205 478.429 C 217.182 478.504, 219.273 477.925, 226.600 472.446 L 229.699 470.128 233.275 473.075 C 240.192 478.777, 246.573 480.979, 256.202 480.990 C 264.416 480.999, 265.327 480.778, 272.420 477.042 C 276.553 474.866, 280.175 473.474, 280.468 473.949 C 280.762 474.424, 283.104 476.205, 285.673 477.907 L 290.343 481 305.024 481 L 319.706 481 320.433 453.756 C 320.833 438.772, 321.514 426.059, 321.947 425.506 C 322.380 424.953, 322.976 421.687, 323.272 418.250 C 324.096 408.681, 331.896 397.300, 342.750 389.829 L 347 386.904 347 378.562 C 347 370.268, 347.025 370.186, 351.379 364.360 C 355.603 358.708, 362.365 351.849, 370.285 345.185 C 372.703 343.150, 375.155 342, 377.077 342 C 380.703 342, 388.721 336.447, 389.576 333.343 C 389.903 332.157, 389.651 330.216, 389.016 329.029 C 387.613 326.408, 388.506 325.124, 394.691 320.868 C 403.241 314.986, 404.106 309.166, 397.482 302.085 C 394.369 298.757, 393.166 296.731, 393.612 295.568 C 394.076 294.360, 393.615 293.712, 391.989 293.287 C 390.531 292.906, 385.026 286.340, 376.609 274.942 C 349.594 238.359, 350.250 239.446, 351.882 234 C 352.487 231.979, 353.887 229.508, 354.991 228.508 C 357.941 225.838, 357.473 225, 353.035 225 C 348.212 225, 348.312 225.172, 343.677 209 C 337.534 187.564, 336 180.399, 336 173.140 L 336 166.114 341.608 160.057 L 347.215 154 343.562 154 C 338.661 154, 336.549 151.688, 330.313 139.500 C 321.634 122.538, 318.331 108.664, 321.368 101.930 C 321.955 100.627, 321.179 100.320, 316.799 100.120 C 311.362 99.872, 286.892 91.295, 278.630 86.741 L 274.500 84.465 274.219 72.232 L 273.938 60 277.904 60 C 283.760 60, 286.512 58.607, 293.131 52.293 C 298.401 47.267, 299.537 46.624, 302.801 46.821 L 306.500 47.043 303.500 45.028 C 298.984 41.995, 294.141 42.488, 284.119 47 C 279.233 49.200, 274.783 51, 274.229 51 C 273.676 51, 272.930 49.441, 272.573 47.535 C 271.622 42.470, 270.416 42.444, 269.011 47.460 M 194 93.521 L 194 97 201.250 96.969 L 208.500 96.937 203.962 94.719 C 193.358 89.534, 194 89.611, 194 93.521 M 258.963 93.481 C 254.818 95.141, 250.093 97.015, 248.463 97.644 C 245.929 98.622, 247.061 98.803, 256.281 98.894 C 268.117 99.010, 269.104 98.502, 267.379 93.175 L 266.500 90.462 258.963 93.481 M 185.759 91.574 C 185.444 91.890, 182.556 93.241, 179.343 94.576 L 173.500 97.005 181 96.753 C 188.367 96.504, 188.506 96.451, 188.816 93.750 C 189.112 91.183, 187.382 89.952, 185.759 91.574 M 275.098 95.149 C 274.494 96.881, 274 98.456, 274 98.649 C 274 98.842, 279.512 98.978, 286.250 98.950 L 298.500 98.900 289 95.451 C 283.775 93.554, 278.757 92.001, 277.848 92.001 C 276.893 92, 275.732 93.330, 275.098 95.149 M 204.196 106.589 C 198.558 109.399, 198.496 109.552, 200.058 116.833 L 201.115 121.764 212.590 126.516 C 218.902 129.129, 224.257 131.076, 224.491 130.842 C 225.464 129.870, 228 118.300, 228 114.837 C 228 106.776, 224.708 104, 215.149 104 C 210.960 104, 207.978 104.705, 204.196 106.589 M 161.377 105.765 C 160.760 106.169, 159.035 110.550, 157.546 115.500 C 156.056 120.450, 153.989 125.963, 152.952 127.750 L 151.067 131 153.825 131 C 156.482 131, 178.536 123.921, 186.250 120.592 C 190.055 118.950, 190.896 116.933, 189 114 C 188.212 112.781, 188.028 112.910, 188.015 114.691 C 188.007 115.896, 187.550 117.160, 187 117.500 C 186.415 117.861, 186 116.828, 186 115.011 C 186 111.002, 182.360 107.580, 176.533 106.113 C 171.535 104.854, 163.066 104.660, 161.377 105.765 M 296 108.690 C 294.625 108.919, 291.137 109.771, 288.250 110.582 C 282.193 112.283, 282.205 112.238, 284.562 123.647 C 285.421 127.806, 285.834 131.499, 285.480 131.853 C 283.845 133.489, 279 121.875, 279 116.318 C 279 115.043, 278.619 114, 278.152 114 C 277.686 114, 277.349 118.050, 277.402 123 L 277.500 131.999 280.166 132 C 281.632 132, 290.407 135.076, 299.666 138.835 C 318.329 146.414, 329.868 150.465, 330.626 149.707 C 330.900 149.433, 329.003 144.999, 326.409 139.854 C 323.815 134.709, 320.064 126, 318.073 120.500 C 314.696 111.172, 314.220 110.420, 310.977 109.306 C 307.566 108.136, 300.950 107.863, 296 108.690 M 235.272 110.811 C 234.597 111.240, 232.710 116.070, 231.080 121.545 C 229.449 127.020, 226.108 135.775, 223.656 141 C 221.204 146.225, 219.294 150.604, 219.413 150.731 C 219.531 150.858, 226.575 148.114, 235.064 144.634 C 243.554 141.154, 254.849 136.823, 260.164 135.009 L 269.828 131.712 269.349 128.106 C 268.071 118.477, 267.473 118.248, 264.496 126.250 C 262.471 131.692, 260.360 132.741, 261.478 127.750 C 264.266 115.297, 263.910 114.180, 256.334 111.598 C 251.461 109.938, 237.470 109.415, 235.272 110.811 M 195.518 115.263 C 194.705 118.293, 196.228 121, 198.745 121 C 199.935 121, 199.999 120.703, 199.053 119.564 C 198.398 118.774, 197.501 116.862, 197.060 115.314 L 196.259 112.500 195.518 115.263 M 176 128.027 L 167.500 130.845 178.250 130.922 C 189.457 131.003, 190 130.771, 188.393 126.582 C 187.595 124.502, 186.112 124.675, 176 128.027 M 195.667 126.667 C 195.300 127.033, 195 128.158, 195 129.167 C 195 130.824, 195.936 130.993, 204.750 130.930 L 214.500 130.859 208.500 128.481 C 202.608 126.146, 196.983 125.351, 195.667 126.667 M 250.500 143.126 C 243.350 145.903, 237.113 148.545, 236.640 148.997 C 235.488 150.100, 268.241 148.995, 269.437 147.891 C 270.005 147.367, 269.559 146.137, 268.302 144.763 C 267.162 143.518, 265.923 141.488, 265.548 140.250 C 265.172 139.012, 264.558 138.017, 264.183 138.039 C 263.807 138.060, 257.650 140.349, 250.500 143.126 M 278.753 143.094 C 277.821 146.008, 277.206 148.539, 277.386 148.719 C 277.566 148.899, 285.963 148.923, 296.047 148.773 L 314.381 148.500 300.940 143.642 C 293.548 140.970, 285.913 138.562, 283.973 138.290 C 280.479 137.801, 280.431 137.845, 278.753 143.094 M 155.092 141.750 C 153.706 142.889, 152.119 146.644, 150.547 152.500 C 149.218 157.450, 147.427 163.469, 146.566 165.876 C 145.704 168.282, 145 170.420, 145 170.626 C 145 171.460, 148.071 170.893, 154.120 168.944 C 157.629 167.813, 165 165.784, 170.500 164.434 C 189.286 159.824, 188 160.442, 188 156.019 C 188 150.867, 186.674 150.247, 185.081 154.653 C 183.260 159.689, 181.922 157.449, 183.269 151.619 C 184.355 146.919, 184.297 146.652, 181.697 144.416 C 178.090 141.313, 172.977 140.012, 164.361 140.006 C 159.033 140.001, 156.681 140.444, 155.092 141.750 M 205.929 142.750 C 199.697 145.907, 198.952 147.931, 201.405 155.049 C 202.233 157.454, 202.685 159.649, 202.408 159.926 C 201.249 161.085, 198.398 158.026, 197.031 154.157 C 196.223 151.871, 195.323 150, 195.031 149.999 C 194.739 149.999, 194.649 152.137, 194.830 154.749 L 195.160 159.500 203.596 162.750 C 214.612 166.994, 215.566 166.996, 213.377 162.762 C 212.456 160.982, 210.372 158.282, 208.746 156.762 L 205.788 154 208.460 154 C 209.929 154, 211.955 153.559, 212.961 153.021 C 215.061 151.897, 217 147.015, 217 142.851 C 217 140.390, 216.614 140, 214.179 140 C 212.628 140, 208.915 141.238, 205.929 142.750 M 315 163.637 C 307.020 164.803, 300.806 166.587, 295.500 169.239 C 292.200 170.888, 289.351 172.370, 289.170 172.532 C 288.988 172.694, 290.908 179.459, 293.436 187.564 C 295.964 195.670, 297.769 202.564, 297.448 202.886 C 295.540 204.793, 287.418 185.073, 286.807 177.049 C 286.470 172.631, 285 173.300, 285 177.872 C 285 182.861, 289.609 201.074, 291.246 202.555 C 292.937 204.085, 306.306 209.622, 324.500 216.326 C 344.464 223.684, 344.484 223.689, 343.566 221.365 C 343.160 220.339, 340.326 210.500, 337.266 199.500 C 332.950 183.979, 331.681 177.820, 331.602 172 C 331.546 167.875, 331.050 164.169, 330.500 163.765 C 329.500 163.030, 319.711 162.950, 315 163.637 M 228.748 166.394 C 226.871 168.272, 225.325 176.731, 226.625 178.011 C 227.106 178.485, 235.262 179.192, 244.750 179.583 C 263.921 180.373, 264.020 180.337, 259.357 174.224 C 255.537 169.215, 247.304 165.745, 237.959 165.204 C 231.873 164.851, 230.056 165.086, 228.748 166.394 M 169.500 168.487 L 160.500 170.770 174.750 170.885 C 182.821 170.950, 189 170.602, 189 170.082 C 189 165.289, 183.787 164.862, 169.500 168.487 M 196.682 168.110 C 196.350 169.376, 196.174 170.495, 196.290 170.595 C 196.405 170.695, 200.775 171.051, 206 171.385 L 215.500 171.994 209.028 169.428 C 199.252 165.551, 197.402 165.354, 196.682 168.110 M 221.218 167.250 C 220.654 167.938, 220.036 169.617, 219.846 170.982 C 219.579 172.897, 218.850 173.514, 216.655 173.680 C 213.313 173.932, 209.001 176.520, 208.998 178.273 C 208.997 179.143, 210.731 179.402, 214.958 179.163 C 221.513 178.793, 221.404 178.913, 222.557 170.750 C 223.250 165.836, 222.974 165.113, 221.218 167.250 M 265 173.943 C 265 175.682, 266.930 179, 267.942 179 C 269.181 179, 268.051 175.287, 266.392 173.910 C 265.336 173.034, 265 173.042, 265 173.943 M 212.813 176.683 C 213.534 176.972, 214.397 176.936, 214.729 176.604 C 215.061 176.272, 214.471 176.036, 213.417 176.079 C 212.252 176.127, 212.015 176.364, 212.813 176.683 M 279 189.418 C 279 194.598, 278.727 199.548, 278.393 200.418 C 277.894 201.720, 278.603 202, 282.393 202 C 284.927 202, 287 201.550, 287 201 C 287 200.450, 286.622 200, 286.161 200 C 284.856 200, 283.380 196.096, 281.512 187.701 C 280.570 183.465, 279.619 180, 279.400 180 C 279.180 180, 279 184.238, 279 189.418 M 146.869 182.158 C 145.890 182.963, 144.990 185.767, 144.620 189.166 C 144.096 193.970, 138.684 214.619, 136.473 220.250 C 135.997 221.462, 136.265 222, 137.346 222 C 138.820 222, 187.049 205.284, 187.831 204.502 C 188.147 204.186, 187.304 200.950, 185.357 195 C 185.078 194.148, 184.094 195.777, 183.080 198.770 C 182.098 201.668, 181.003 204.330, 180.647 204.686 C 179.054 206.279, 179.045 203.734, 180.620 197.462 L 182.325 190.676 179.711 188.428 C 175.344 184.672, 166.264 181.820, 157 181.296 C 150.775 180.944, 148.063 181.175, 146.869 182.158 M 205.345 185.542 C 204.145 188.671, 205.620 203.447, 207.489 207 L 209.329 210.500 212.143 199 C 215.919 183.572, 215.967 184, 210.469 184 C 207.308 184, 205.758 184.467, 205.345 185.542 M 219.649 184.759 C 219.391 185.177, 218.440 188.439, 217.536 192.009 C 215.555 199.830, 209.166 219.807, 207.865 222.247 C 207.352 223.207, 205.105 224.926, 202.870 226.066 C 194.936 230.114, 199.734 228.779, 214.514 222.827 C 235.810 214.251, 259.689 205.078, 265.250 203.337 C 269.937 201.869, 269.999 201.794, 269.942 197.675 C 269.860 191.696, 268.620 185.469, 267.555 185.685 C 267.054 185.787, 265.661 188.583, 264.461 191.898 C 261.977 198.760, 258.841 204.022, 258.265 202.295 C 258.051 201.654, 258.804 198.015, 259.938 194.207 C 263.263 183.043, 265.033 184, 241.059 184 C 229.541 184, 219.907 184.342, 219.649 184.759 M 199.098 195.750 C 199.044 199.188, 198.550 202, 198 202 C 197.450 202, 197 202.450, 197 203 C 197 203.550, 198.377 204, 200.059 204 C 202.252 204, 202.899 203.646, 202.344 202.750 C 201.919 202.063, 201.036 198.800, 200.383 195.500 L 199.196 189.500 199.098 195.750 M 192 197.333 C 192 200.570, 192.444 203, 193.034 203 C 193.701 203, 193.830 201.132, 193.399 197.750 C 192.494 190.656, 192 190.509, 192 197.333 M 282.640 209.750 C 282.369 210.713, 281.837 213.481, 281.459 215.903 L 280.773 220.306 294.742 219.753 C 302.424 219.449, 312.038 219.566, 316.105 220.013 C 320.172 220.461, 323.631 220.698, 323.790 220.540 C 323.950 220.382, 316.408 217.496, 307.030 214.127 C 289.189 207.715, 283.503 206.695, 282.640 209.750 M 198.621 210.750 C 198.338 211.713, 197.808 214.188, 197.442 216.250 C 196.794 219.904, 196.855 220, 199.807 220 C 204.303 220, 206 219.048, 206 216.528 C 206 213.864, 202.443 209, 200.495 209 C 199.747 209, 198.903 209.787, 198.621 210.750 M 247.500 214.329 L 232.500 219.500 250.927 219.773 C 263.828 219.965, 269.675 219.702, 270.427 218.898 C 271.196 218.075, 271.141 217.619, 270.232 217.286 C 267.846 216.412, 266 213.858, 266 211.429 C 266 208.124, 265.082 208.268, 247.500 214.329 M 169.500 215.033 L 155.500 219.893 171.500 219.931 C 186.727 219.968, 191.844 219.258, 189.005 217.503 C 188.340 217.092, 187.161 215.236, 186.385 213.378 C 185.608 211.520, 184.642 210.039, 184.237 210.087 C 183.831 210.134, 177.200 212.360, 169.500 215.033 M 136.092 235.828 C 135.492 236.950, 135 238.922, 135 240.209 C 135 243.288, 129.669 264.890, 127.055 272.407 C 125.925 275.655, 125 278.427, 125 278.567 C 125 278.707, 130.287 276.581, 136.750 273.842 C 151.025 267.794, 168.797 261.797, 179.250 259.501 L 187 257.799 187 253.947 C 187 250.183, 185.296 245, 184.058 245 C 183.716 245, 182.833 247.043, 182.096 249.540 C 180.793 253.954, 177.100 259.654, 177.033 257.355 C 177.015 256.726, 177.928 253.206, 179.062 249.533 C 181.510 241.608, 181.380 241.358, 172.735 237.418 C 166.980 234.794, 165.372 234.545, 151.842 234.181 C 137.900 233.806, 137.131 233.886, 136.092 235.828 M 315.500 234.918 C 311.100 235.319, 304.666 236.466, 301.202 237.468 C 293.906 239.579, 294.097 237.728, 299.304 255.915 L 302.515 267.130 328.936 276.054 C 343.467 280.962, 355.484 284.850, 355.640 284.694 C 355.796 284.537, 354.884 280.605, 353.614 275.955 C 352.344 271.305, 350.295 262.100, 349.061 255.500 C 347.826 248.900, 346.145 241.588, 345.325 239.250 C 343.938 235.296, 343.579 235, 340.167 234.993 C 338.150 234.989, 333.575 234.807, 330 234.588 C 326.425 234.369, 319.900 234.518, 315.500 234.918 M 204.074 237.250 C 204.115 238.488, 204.509 241.525, 204.949 244 C 205.733 248.404, 205.752 248.355, 205.875 241.750 C 205.947 237.833, 205.580 235, 205 235 C 204.450 235, 204.033 236.012, 204.074 237.250 M 213.752 236.172 C 212.556 237.081, 210.550 243.647, 207.391 257 C 201.307 282.709, 200.425 284.989, 195.583 287.509 C 192.379 289.177, 189.141 293.474, 190.252 294.585 C 190.414 294.747, 192.731 293.521, 195.401 291.859 C 204.855 285.974, 254.397 267.399, 268.394 264.491 L 271.288 263.890 270.666 255.824 C 270.324 251.388, 269.529 247.137, 268.900 246.379 C 266.798 243.847, 265.272 244.902, 264.747 249.250 C 264.039 255.122, 260.255 264.688, 258.352 265.418 C 256.602 266.090, 256.640 265.396, 259.063 252.276 C 260.367 245.223, 260.344 244.995, 258.101 242.607 C 253.132 237.319, 246.831 235.633, 230.500 235.221 C 219.098 234.934, 215.081 235.162, 213.752 236.172 M 197.709 239.875 C 197.319 241.731, 197 245.698, 197 248.691 C 197 251.683, 196.534 255.002, 195.965 256.066 C 195.029 257.814, 195.281 258, 198.572 258 C 201.647 258, 202.102 257.728, 201.497 256.250 C 201.102 255.287, 200.248 250.450, 199.599 245.500 C 198.595 237.850, 198.312 237.006, 197.709 239.875 M 288.999 241.750 C 288.999 242.713, 289.955 248.303, 291.124 254.173 C 293.066 263.923, 293.465 264.900, 295.743 265.472 C 299.208 266.341, 299.419 265.755, 297.228 261.347 C 295.531 257.931, 293.406 250.940, 291.576 242.750 C 290.898 239.716, 289 238.980, 288.999 241.750 M 281.734 251.067 C 281.373 256.329, 280.787 261.391, 280.432 262.317 C 279.899 263.706, 280.428 264, 283.460 264 C 286.662 264, 287.054 263.746, 286.509 262.028 C 286.165 260.944, 285.097 255.882, 284.137 250.778 L 282.390 241.500 281.734 251.067 M 351.619 250.250 C 352.860 257.346, 357.158 274.848, 359.126 280.819 C 360.533 285.087, 361.906 287.439, 363.355 288.066 C 365.619 289.044, 382.279 292.055, 382.761 291.572 C 382.917 291.417, 379.291 286.162, 374.704 279.895 C 370.117 273.628, 363.097 263.663, 359.104 257.750 C 355.111 251.838, 351.666 247, 351.447 247 C 351.229 247, 351.306 248.463, 351.619 250.250 M 170.927 265.628 C 164.642 267.449, 156.575 270.027, 153 271.359 L 146.500 273.779 166.500 273.260 C 177.500 272.974, 186.664 272.597, 186.865 272.422 C 187.066 272.247, 186.133 269.902, 184.792 267.211 L 182.354 262.318 170.927 265.628 M 198.513 268.622 C 196.657 273.066, 196.656 273, 198.525 273 C 199.363 273, 200.488 271.846, 201.025 270.435 C 203.302 264.444, 200.964 262.757, 198.513 268.622 M 263.633 274.979 C 262.185 277.167, 261 279.111, 261 279.300 C 261 279.488, 263.250 279.745, 266 279.871 C 271.101 280.103, 272.177 279.221, 269.500 277 C 268.675 276.315, 268 274.685, 268 273.378 C 268 269.942, 266.634 270.443, 263.633 274.979 M 283 275.763 L 281.500 280.500 304.678 280.500 C 317.425 280.500, 327.325 280.220, 326.678 279.879 C 326.030 279.537, 319.282 277.583, 311.682 275.536 C 298.968 272.112, 297.722 271.941, 296.103 273.407 C 293.787 275.502, 292.345 275.416, 289.273 273 C 285.574 270.091, 284.670 270.489, 283 275.763 M 311.323 293.922 C 306.275 294.252, 301.830 294.837, 301.444 295.223 C 301.058 295.608, 303.434 300.779, 306.723 306.712 C 313.476 318.894, 311.908 318.133, 326 316.067 C 335.958 314.607, 347.148 315.266, 361.295 318.145 C 367.096 319.326, 372.346 319.863, 374.170 319.463 C 378.237 318.569, 377.061 320.668, 372.890 321.749 C 369.264 322.688, 368.637 324.377, 371.750 324.820 C 374.272 325.178, 374.572 326.028, 372.800 327.800 C 372.018 328.582, 371.976 329, 372.678 329 C 373.270 329, 374.373 328.256, 375.127 327.347 C 375.882 326.437, 377.769 325.160, 379.320 324.507 L 382.141 323.321 379.672 320.387 C 375.822 315.811, 375.718 308.191, 379.455 304.455 C 380.805 303.105, 381.689 302, 381.419 302 C 381.150 302, 373.177 303.995, 363.702 306.434 C 345.599 311.093, 334.740 313.013, 336.500 311.243 C 337.292 310.446, 370.279 301.513, 383.250 298.583 C 384.762 298.241, 386 297.569, 386 297.089 C 386 295.611, 381.100 294.859, 365.500 293.945 C 349.165 292.987, 325.802 292.978, 311.323 293.922 M 217.541 300.250 C 217.912 301.488, 220.473 307.219, 223.231 312.986 L 228.246 323.472 233.490 312.986 C 241.708 296.555, 242.190 298, 228.500 298 C 216.901 298, 216.867 298.007, 217.541 300.250 M 240.686 306.859 C 238.710 311.181, 232.725 323.574, 227.386 334.398 C 221.587 346.155, 218.045 354.438, 218.589 354.972 C 219.090 355.464, 223.948 357.287, 229.385 359.023 C 236.822 361.399, 239.457 361.879, 240.024 360.961 C 241.168 359.111, 257.021 305.749, 257.010 303.789 C 257.003 302.595, 255.433 301.612, 251.818 300.539 C 248.969 299.692, 246.106 299, 245.458 299 C 244.809 299, 242.662 302.536, 240.686 306.859 M 294.579 299.872 C 294.283 300.352, 295.333 304.514, 296.913 309.122 C 301.205 321.638, 300.854 321.070, 303.854 320.355 C 305.309 320.007, 306.850 319.527, 307.277 319.286 C 308.380 318.665, 297.751 299.012, 296.309 299.005 C 295.654 299.002, 294.876 299.392, 294.579 299.872 M 278 306.261 C 278 309.246, 278.295 316.514, 278.656 322.411 C 279.296 332.867, 279.358 333.086, 281.174 331.270 C 282.887 329.558, 282.955 328.610, 282.023 319.454 C 281.467 313.979, 280.896 307.735, 280.755 305.577 C 280.343 299.240, 278 299.822, 278 306.261 M 180.237 317.250 C 174.675 337.311, 167.001 369.778, 167 373.250 C 167 374.762, 167.441 376, 167.981 376 C 168.520 376, 169.241 374.762, 169.582 373.250 C 171.417 365.113, 178.784 336.451, 182.609 322.561 C 187.232 305.781, 187.806 302, 185.733 302 C 184.950 302, 182.849 307.829, 180.237 317.250 M 190.580 307.427 C 190.226 309.312, 187.926 318.199, 185.469 327.177 C 181.335 342.281, 177 361.981, 177 365.666 C 177 366.984, 177.907 367.122, 182.750 366.541 C 185.912 366.162, 189.512 365.611, 190.750 365.317 L 193 364.783 193 334.392 C 193 306.433, 192.277 298.379, 190.580 307.427 M 259.969 308.250 C 259.360 310.587, 258.019 315.425, 256.990 319 C 253.809 330.045, 248.816 350.150, 249.167 350.501 C 249.463 350.796, 261.743 343.064, 266.217 339.766 C 267.701 338.671, 267.961 336.290, 268.141 322.167 C 268.363 304.712, 268.186 304.049, 263.289 304.015 C 261.523 304.003, 260.854 304.856, 259.969 308.250 M 386.750 305.080 C 384.740 306.251, 384.401 311.001, 386.200 312.800 C 386.860 313.460, 388.570 314, 390 314 C 391.430 314, 393.140 313.460, 393.800 312.800 C 394.460 312.140, 395 310.430, 395 309 C 395 304.493, 391.012 302.598, 386.750 305.080 M 125.127 309.046 C 132.808 318.621, 136.779 322.385, 145.756 328.600 C 158.347 337.318, 158 337.242, 158 331.281 C 158 327.439, 157.503 325.896, 155.750 324.302 C 153.412 322.174, 136.472 312.261, 127.127 307.550 L 121.754 304.842 125.127 309.046 M 202.423 322.500 C 202.766 331.850, 203.149 350.611, 203.273 364.191 C 203.398 377.771, 203.788 388.571, 204.140 388.191 C 204.492 387.811, 205.537 383.696, 206.462 379.046 C 207.387 374.397, 208.793 369.039, 209.586 367.140 C 210.881 364.040, 210.856 363.498, 209.338 361.820 C 208.103 360.456, 207.594 357.869, 207.450 352.226 C 207.210 342.777, 203.315 306.975, 202.434 306.119 C 202.085 305.778, 202.079 313.150, 202.423 322.500 M 288.599 314.500 C 289.401 325.964, 289.821 327.035, 292.784 325.155 C 293.791 324.516, 293.417 322.412, 291.054 315.420 L 288.040 306.500 288.599 314.500 M 215.471 314 C 217.899 322.727, 221.530 333, 222.187 333 C 222.613 333, 223.247 331.866, 223.595 330.479 C 224.049 328.667, 223.186 325.926, 220.523 320.729 C 216.427 312.734, 214.348 309.965, 215.471 314 M 207.417 315.750 C 207.733 317.262, 208.444 321.875, 208.997 326 C 210.370 336.235, 213.137 349, 213.985 349 C 214.367 349, 215.245 347.286, 215.937 345.192 C 217.110 341.637, 216.880 340.437, 212.493 327.192 C 208.096 313.916, 206.084 309.380, 207.417 315.750 M 321 326.500 C 313.448 328.190, 290.715 336.049, 291.400 336.733 C 291.655 336.989, 297.632 335.831, 304.682 334.160 C 322.885 329.846, 333.534 328.635, 347.250 329.317 C 353.712 329.638, 359 329.518, 359 329.049 C 359 325.683, 332.576 323.911, 321 326.500 M 164 330.333 C 164 331.067, 165.501 333.404, 167.336 335.526 L 170.673 339.386 171.357 335.963 C 171.926 333.118, 171.658 332.245, 169.771 330.792 C 167.067 328.711, 164 328.467, 164 330.333 M 380 331.500 C 379.293 332.352, 378.940 333.273, 379.215 333.548 C 379.490 333.823, 380.293 333.352, 381 332.500 C 381.707 331.648, 382.060 330.727, 381.785 330.452 C 381.510 330.177, 380.707 330.648, 380 331.500 M 359.093 337.685 C 353.891 343.521, 347.035 355.368, 348.190 356.523 C 348.546 356.880, 353.442 352.694, 359.069 347.222 L 369.299 337.273 367.400 334.668 C 366.355 333.235, 365.198 332.049, 364.830 332.031 C 364.461 332.014, 361.880 334.558, 359.093 337.685 M 131.193 342.500 C 133.444 349.072, 134.394 353.928, 134.714 360.500 C 135.253 371.562, 135.377 371.976, 137.939 371.306 C 139.740 370.835, 140 369.987, 140 364.593 C 140 354.061, 136.376 343.541, 130.138 335.963 C 128.398 333.849, 128.548 334.776, 131.193 342.500 M 314.755 338.590 C 306.703 340.120, 288.598 346.185, 273.750 352.325 C 264.196 356.276, 240.403 370.737, 241.558 371.891 C 241.779 372.113, 245.682 370.027, 250.230 367.256 C 264.298 358.684, 271.921 355.377, 297.132 346.905 C 310.534 342.402, 321.688 338.556, 321.917 338.359 C 323.078 337.359, 320.857 337.431, 314.755 338.590 M 168 343.059 C 168 343.641, 168.450 343.840, 169 343.500 C 169.550 343.160, 170 342.684, 170 342.441 C 170 342.198, 169.550 342, 169 342 C 168.450 342, 168 342.477, 168 343.059 M 323.500 349.103 C 315.644 351.596, 311.632 355.818, 309.941 363.373 C 308.802 368.465, 308.855 369.182, 310.510 371.011 C 311.515 372.122, 314.130 373.317, 316.321 373.667 C 319.965 374.250, 320.147 374.420, 318.455 375.657 C 317.437 376.401, 315.681 376.759, 314.552 376.453 C 312.535 375.906, 312.533 375.923, 314.441 377.448 C 317.445 379.850, 321.536 379.313, 329.275 375.500 C 333.183 373.575, 336.881 372, 337.494 372 C 338.106 372, 340.097 370.464, 341.917 368.586 C 344.323 366.103, 345.360 363.985, 345.716 360.825 C 346.143 357.043, 345.836 356.105, 343.353 353.594 C 339.310 349.507, 334.911 346.992, 332 347.104 C 330.625 347.156, 326.800 348.056, 323.500 349.103 M 327.108 349.860 C 325.956 350.632, 326.086 351.312, 327.858 353.801 C 329.036 355.455, 330 357.302, 330 357.904 C 330 359.466, 331.541 359.258, 333 357.500 C 333.685 356.675, 335.551 356, 337.147 356 C 342.843 356, 342.798 363.421, 337.077 367.668 C 334.709 369.426, 334.669 368.592, 336.942 364.863 C 340.331 359.305, 339.359 356.774, 334.545 358.621 C 332.781 359.298, 330 365.113, 330 368.122 C 330 369.651, 330.755 370, 334.066 370 C 336.302 370, 338.948 369.563, 339.945 369.029 C 342.695 367.558, 345.174 360.587, 344.024 357.562 C 342.139 352.605, 330.750 347.419, 327.108 349.860 M 316.762 353.973 C 311.213 358.337, 309.215 367.636, 313.223 370.443 C 315.446 372, 321 372.616, 321 371.305 C 321 370.922, 319.847 369.406, 318.437 367.934 C 313.831 363.126, 315.853 355, 321.655 355 C 325.064 355, 324.548 357.640, 321 358.350 C 318.389 358.872, 318.005 359.375, 318.036 362.225 C 318.057 364.151, 319.054 366.701, 320.457 368.417 C 322.762 371.237, 322.924 371.280, 325.345 369.694 C 330.043 366.616, 330.040 359.313, 325.339 354.612 C 322.215 351.487, 320.120 351.331, 316.762 353.973 M 322 363.500 C 322 364.325, 322.450 365, 323 365 C 323.550 365, 324 364.325, 324 363.500 C 324 362.675, 323.550 362, 323 362 C 322.450 362, 322 362.675, 322 363.500 M 218 366.500 C 219.375 367.286, 220.950 367.929, 221.500 367.929 C 222.050 367.929, 221.375 367.286, 220 366.500 C 218.625 365.714, 217.050 365.071, 216.500 365.071 C 215.950 365.071, 216.625 365.714, 218 366.500 M 260 369.986 C 241.943 373.736, 231.372 376.705, 232.404 377.738 C 232.687 378.020, 237.998 376.863, 244.209 375.167 C 250.419 373.470, 261.350 370.884, 268.500 369.420 C 275.650 367.955, 281.688 366.586, 281.917 366.378 C 282.919 365.468, 277.304 366.393, 260 369.986 M 325.204 373.022 C 322.143 374.884, 320.941 377, 322.944 377 C 324.315 377, 329.600 372.270, 328.954 371.622 C 328.653 371.321, 326.966 371.951, 325.204 373.022 M 177.578 376.120 C 173.837 376.998, 170.532 378.865, 171.322 379.656 C 171.526 379.859, 173.323 379.345, 175.314 378.513 C 177.306 377.681, 181.088 376.968, 183.718 376.930 C 186.348 376.891, 189.400 376.473, 190.500 376 C 193.273 374.808, 182.756 374.906, 177.578 376.120 M 136 378.996 C 133.622 379.493, 135.578 379.719, 142.099 379.702 C 156.600 379.662, 163.005 383.443, 169.150 395.669 C 171.122 399.592, 171.878 400.519, 171.463 398.500 C 168.997 386.516, 157.994 377.888, 145.500 378.141 C 142.200 378.208, 137.925 378.593, 136 378.996 M 233 383.500 C 232.306 384.337, 232.197 385, 232.755 385 C 233.305 385, 234.315 384.325, 235 383.500 C 235.694 382.663, 235.803 382, 235.245 382 C 234.695 382, 233.685 382.675, 233 383.500 M 210.118 388.191 C 210.183 389.461, 210.580 391.850, 211 393.500 C 211.685 396.193, 211.775 396.020, 211.882 391.809 C 211.947 389.229, 211.550 386.840, 211 386.500 C 210.434 386.150, 210.051 386.883, 210.118 388.191 M 190 387.385 C 190 387.597, 190.657 389.285, 191.461 391.135 C 192.613 393.788, 192.930 394.041, 192.961 392.332 C 193.011 389.533, 192.029 387, 190.893 387 C 190.402 387, 190 387.173, 190 387.385 M 304.750 397.080 C 302.582 398.343, 300 403.191, 300 406 C 300 412.193, 307.167 418.028, 312.351 416.057 C 317.648 414.043, 319.588 406.972, 316.490 400.980 C 314.091 396.342, 308.950 394.634, 304.750 397.080 M 304.923 399.923 C 302.038 402.808, 301.185 406.712, 302.621 410.455 C 303.558 412.897, 308.602 415.138, 311.515 414.407 C 318.486 412.657, 318.714 401.972, 311.855 398.425 C 308.237 396.554, 308.308 396.538, 304.923 399.923 M 307.593 403.550 C 305.464 405.679, 305.927 408.500, 308.405 408.500 C 311.309 408.500, 312.827 405.398, 310.876 403.447 C 309.422 401.994, 309.140 402.003, 307.593 403.550 M 284.750 408.662 C 285.438 408.940, 286.563 408.940, 287.250 408.662 C 287.938 408.385, 287.375 408.158, 286 408.158 C 284.625 408.158, 284.063 408.385, 284.750 408.662 M 274 410.049 C 272.314 410.622, 273.128 410.711, 276.500 410.321 C 279.250 410.004, 281.688 409.576, 281.917 409.372 C 282.704 408.669, 276.498 409.200, 274 410.049 M 192.782 412.500 C 192.432 413.600, 191.168 415.962, 189.975 417.750 C 188.781 419.538, 188.261 421, 188.820 421 C 190.369 421, 194.200 414.257, 193.785 412.260 C 193.461 410.700, 193.347 410.728, 192.782 412.500 M 259 412.185 C 255.975 412.708, 246.525 414.209, 238 415.520 C 227.956 417.064, 225.166 417.708, 230.075 417.350 C 238.556 416.732, 272.192 411.235, 267.500 411.234 C 265.850 411.234, 262.025 411.662, 259 412.185 M 178.344 414.508 C 177.708 415.879, 177.524 417, 177.934 417 C 178.344 417, 179.192 415.875, 179.818 414.500 C 180.445 413.125, 180.629 412.004, 180.229 412.008 C 179.828 412.012, 178.980 413.137, 178.344 414.508 M 203.839 417.314 C 202.925 420.166, 202.304 422.629, 202.458 422.786 C 203.134 423.475, 206.098 415.739, 205.815 414.027 C 205.626 412.888, 204.836 414.203, 203.839 417.314 M 217.250 418.689 C 218.213 418.941, 219.787 418.941, 220.750 418.689 C 221.713 418.438, 220.925 418.232, 219 418.232 C 217.075 418.232, 216.287 418.438, 217.250 418.689 M 245 431 C 242.969 433.200, 240.969 435, 240.555 435 C 240.141 435, 238.520 433.627, 236.952 431.949 C 234.323 429.134, 233.655 428.921, 228.343 429.199 C 222.898 429.484, 222.442 429.712, 219.938 433.406 C 218.482 435.554, 215.769 438.031, 213.909 438.909 C 212.048 439.788, 210.375 441.292, 210.190 442.253 C 209.905 443.734, 210.642 444, 215.042 444 C 219.739 444, 220.548 443.653, 223.588 440.335 C 226.509 437.145, 227.663 436.610, 232.473 436.211 C 236.844 435.848, 238 436.055, 238 437.202 C 238 438.908, 242.104 443, 243.814 443 C 244.476 443, 245 441.618, 245 439.876 C 245 437.427, 245.972 435.896, 249.500 432.791 C 254.675 428.236, 255.069 427, 251.346 427 C 249.533 427, 247.524 428.266, 245 431 M 229.020 442.284 C 226.206 443.708, 223.914 447.613, 224.696 449.650 C 225.080 450.651, 226.164 450.185, 228.762 447.904 C 231.836 445.205, 232.815 444.875, 236.153 445.408 C 240.722 446.139, 241.565 444.034, 237.453 442.161 C 234.210 440.683, 232.125 440.713, 229.020 442.284" stroke="none" fill="black" fill-rule="evenodd"/>
</svg>